# xmcd CD database file
#
# Track frame offsets:
#	150
#	19295
#	38027
#	58747
#	74805
#	95317
#	106545
#	126765
#	147215
#	170910
#	188225
#	210737
#	229715
#	250322
#	273777
#	296462
#	315570
#	335225
#
# Disc length: 4734 seconds
#
# Revision: 0
# Processed by: cddbd v1.5.1PL0 Copyright (c) Steve Scherf et al.
# Submitted via: CDex 1.51
#
DISCID=11127c12
DTITLE=EPO - Golden Best
DYEAR=2005
DGENRE=Vocal
TTITLE0=う、ふ、ふ、ふ、
TTITLE1=土曜の夜はパラダイス
TTITLE2=身代わりのバディー
TTITLE3=日曜はベルが鳴る前に
TTITLE4=Vitamin E・P・O
TTITLE5=Park Ave1981
TTITLE6=うわさになりたい
TTITLE7=私について
TTITLE8=無言のジェラシー
TTITLE9=くちびるヌード・咲かせます
TTITLE10=雨のめぐり逢い
TTITLE11=DownTown
TTITLE12=雨のケンネル通り
TTITLE13=朝のドライブ
TTITLE14=Harmony
TTITLE15=音楽のような風
TTITLE16=12月のエイプリル・フール
TTITLE17=太陽にPUMP!PUMP!
EXTD=YEAR: 2005
EXTT0=
EXTT1=
EXTT2=
EXTT3=
EXTT4=
EXTT5=
EXTT6=
EXTT7=
EXTT8=
EXTT9=
EXTT10=
EXTT11=
EXTT12=
EXTT13=
EXTT14=
EXTT15=
EXTT16=
EXTT17=
PLAYORDER=
